G04 #@! TF.GenerationSoftware,KiCad,Pcbnew,10.0.0*
G04 #@! TF.CreationDate,2026-05-31T15:32:53-07:00*
G04 #@! TF.ProjectId,OmniHubHat,4f6d6e69-4875-4624-9861-742e6b696361,rev?*
G04 #@! TF.SameCoordinates,Original*
G04 #@! TF.FileFunction,Copper,L2,Bot*
G04 #@! TF.FilePolarity,Positive*
%FSLAX46Y46*%
G04 Gerber Fmt 4.6, Leading zero omitted, Abs format (unit mm)*
G04 Created by KiCad (PCBNEW 10.0.0) date 2026-05-31 15:32:53*
%MOMM*%
%LPD*%
G01*
G04 APERTURE LIST*
G04 Aperture macros list*
%AMRoundRect*
0 Rectangle with rounded corners*
0 $1 Rounding radius*
0 $2 $3 $4 $5 $6 $7 $8 $9 X,Y pos of 4 corners*
0 Add a 4 corners polygon primitive as box body*
4,1,4,$2,$3,$4,$5,$6,$7,$8,$9,$2,$3,0*
0 Add four circle primitives for the rounded corners*
1,1,$1+$1,$2,$3*
1,1,$1+$1,$4,$5*
1,1,$1+$1,$6,$7*
1,1,$1+$1,$8,$9*
0 Add four rect primitives between the rounded corners*
20,1,$1+$1,$2,$3,$4,$5,0*
20,1,$1+$1,$4,$5,$6,$7,0*
20,1,$1+$1,$6,$7,$8,$9,0*
20,1,$1+$1,$8,$9,$2,$3,0*%
G04 Aperture macros list end*
G04 #@! TA.AperFunction,ComponentPad*
%ADD10R,1.700000X1.700000*%
G04 #@! TD*
G04 #@! TA.AperFunction,ComponentPad*
%ADD11C,1.700000*%
G04 #@! TD*
G04 #@! TA.AperFunction,ComponentPad*
%ADD12O,1.700000X1.950000*%
G04 #@! TD*
G04 #@! TA.AperFunction,ComponentPad*
%ADD13RoundRect,0.250000X-0.600000X-0.725000X0.600000X-0.725000X0.600000X0.725000X-0.600000X0.725000X0*%
G04 #@! TD*
G04 #@! TA.AperFunction,ComponentPad*
%ADD14RoundRect,0.249999X0.850001X-0.850001X0.850001X0.850001X-0.850001X0.850001X-0.850001X-0.850001X0*%
G04 #@! TD*
G04 #@! TA.AperFunction,ComponentPad*
%ADD15C,2.200000*%
G04 #@! TD*
G04 #@! TA.AperFunction,ViaPad*
%ADD16C,0.900000*%
G04 #@! TD*
G04 #@! TA.AperFunction,ViaPad*
%ADD17C,1.000000*%
G04 #@! TD*
G04 #@! TA.AperFunction,Conductor*
%ADD18C,0.250000*%
G04 #@! TD*
G04 #@! TA.AperFunction,Conductor*
%ADD19C,0.800000*%
G04 #@! TD*
G04 APERTURE END LIST*
D10*
X108370000Y-48770000D03*
D11*
X108370000Y-46230000D03*
X110910000Y-48770000D03*
X110910000Y-46230000D03*
X113450000Y-48770000D03*
X113450000Y-46230000D03*
X115990000Y-48770000D03*
X115990000Y-46230000D03*
X118530000Y-48770000D03*
X118530000Y-46230000D03*
X121070000Y-48770000D03*
X121070000Y-46230000D03*
X123610000Y-48770000D03*
X123610000Y-46230000D03*
X126150000Y-48770000D03*
X126150000Y-46230000D03*
X128690000Y-48770000D03*
X128690000Y-46230000D03*
X131230000Y-48770000D03*
X131230000Y-46230000D03*
X133770000Y-48770000D03*
X133770000Y-46230000D03*
X136310000Y-48770000D03*
X136310000Y-46230000D03*
X138850000Y-48770000D03*
X138850000Y-46230000D03*
X141390000Y-48770000D03*
X141390000Y-46230000D03*
X143930000Y-48770000D03*
X143930000Y-46230000D03*
X146470000Y-48770000D03*
X146470000Y-46230000D03*
X149010000Y-48770000D03*
X149010000Y-46230000D03*
X151550000Y-48770000D03*
X151550000Y-46230000D03*
X154090000Y-48770000D03*
X154090000Y-46230000D03*
X156630000Y-48770000D03*
X156630000Y-46230000D03*
D12*
X123000000Y-63000000D03*
X120500000Y-63000000D03*
X118000000Y-63000000D03*
X115500000Y-63000000D03*
D13*
X113000000Y-63000000D03*
X113000000Y-55000000D03*
D12*
X115500000Y-55000000D03*
X118000000Y-55000000D03*
X120500000Y-55000000D03*
D14*
X154960000Y-55540000D03*
D15*
X154960000Y-53000000D03*
D13*
X128000000Y-55000000D03*
D12*
X130500000Y-55000000D03*
X133000000Y-55000000D03*
X135500000Y-55000000D03*
X138000000Y-55000000D03*
X140500000Y-55000000D03*
D16*
X145000000Y-55775000D03*
X145316400Y-52930400D03*
D17*
X112484000Y-57210100D03*
X118666600Y-57210100D03*
X142358500Y-55997000D03*
D16*
X113829600Y-53257400D03*
D18*
X144546800Y-53700000D02*
X145316400Y-52930400D01*
X139300000Y-53700000D02*
X144546800Y-53700000D01*
X138000000Y-55000000D02*
X139300000Y-53700000D01*
X114625000Y-52462000D02*
X114625000Y-47595000D01*
X113829600Y-53257400D02*
X114625000Y-52462000D01*
X114625000Y-47595000D02*
X115990000Y-46230000D01*
X113183016Y-55000000D02*
X117165000Y-51018016D01*
X113000000Y-55000000D02*
X113183016Y-55000000D01*
X117165000Y-51018016D02*
X117165000Y-47595000D01*
X117165000Y-47595000D02*
X118530000Y-46230000D01*
X145320000Y-55000000D02*
X151550000Y-48770000D01*
X140500000Y-55000000D02*
X145320000Y-55000000D01*
X147835000Y-48283299D02*
X148713299Y-47405000D01*
X147835000Y-49066701D02*
X147835000Y-48283299D01*
X148713299Y-47405000D02*
X152915000Y-47405000D01*
X137500000Y-53000000D02*
X143901701Y-53000000D01*
X135500000Y-55000000D02*
X137500000Y-53000000D01*
X143901701Y-53000000D02*
X147835000Y-49066701D01*
X152915000Y-47405000D02*
X154090000Y-46230000D01*
X126150000Y-61026700D02*
X124176700Y-63000000D01*
X126150000Y-48770000D02*
X126150000Y-61026700D01*
X123000000Y-63000000D02*
X124176700Y-63000000D01*
X120500000Y-63000000D02*
X121676700Y-63000000D01*
X123610000Y-56125900D02*
X123610000Y-48770000D01*
X121676700Y-58059200D02*
X123610000Y-56125900D01*
X121676700Y-63000000D02*
X121676700Y-58059200D01*
X121070000Y-48770000D02*
X121070000Y-49946700D01*
X121676700Y-50553400D02*
X121070000Y-49946700D01*
X121676700Y-55904000D02*
X121676700Y-50553400D01*
X118000000Y-59580700D02*
X121676700Y-55904000D01*
X118000000Y-63000000D02*
X118000000Y-59580700D01*
D19*
X130500000Y-52031700D02*
X130500000Y-55000000D01*
X128690000Y-50221700D02*
X130500000Y-52031700D01*
X128690000Y-48770000D02*
X128690000Y-50221700D01*
X106918300Y-51644400D02*
X112484000Y-57210100D01*
X106918300Y-46230000D02*
X106918300Y-51644400D01*
X118666700Y-57210100D02*
X118666600Y-57210100D01*
X118666700Y-56833300D02*
X118666700Y-57210100D01*
X120500000Y-55000000D02*
X118666700Y-56833300D01*
X108370000Y-46230000D02*
X106918300Y-46230000D01*
X137778300Y-50221700D02*
X133000000Y-55000000D01*
X138850000Y-50221700D02*
X137778300Y-50221700D01*
X138850000Y-48770000D02*
X138850000Y-50221700D01*
X118530000Y-52893300D02*
X118000000Y-53423300D01*
X118530000Y-48770000D02*
X118530000Y-52893300D01*
X118000000Y-55000000D02*
X118000000Y-53423300D01*
X129612400Y-56612400D02*
X128000000Y-55000000D01*
X131387600Y-56612400D02*
X129612400Y-56612400D01*
X133000000Y-55000000D02*
X131387600Y-56612400D01*
X113000000Y-60000000D02*
X113000000Y-63000000D01*
X118000000Y-55000000D02*
X113000000Y-60000000D01*
X134576700Y-56576700D02*
X133000000Y-55000000D01*
X141778800Y-56576700D02*
X134576700Y-56576700D01*
X142358500Y-55997000D02*
X141778800Y-56576700D01*
D18*
X147184200Y-55675800D02*
X154090000Y-48770000D01*
X145000000Y-55775000D02*
X145493359Y-55775000D01*
X145493359Y-55775000D02*
X145592559Y-55675800D01*
X145592559Y-55675800D02*
X147184200Y-55675800D01*
G04 #@! TA.AperFunction,Conductor*
G36*
X144911333Y-52762590D02*
G01*
X145035099Y-52813558D01*
X145312599Y-52927836D01*
X145318944Y-52934155D01*
X145318963Y-52934200D01*
X145484209Y-53335466D01*
X145484190Y-53344421D01*
X145477984Y-53350681D01*
X144778389Y-53649356D01*
X144769435Y-53649453D01*
X144765522Y-53646869D01*
X144599930Y-53481277D01*
X144596503Y-53473004D01*
X144597442Y-53468413D01*
X144896119Y-52768813D01*
X144902518Y-52762552D01*
X144911333Y-52762590D01*
G37*
G04 #@! TD.AperFunction*
G04 #@! TA.AperFunction,Conductor*
G36*
X114380477Y-52540930D02*
G01*
X114546069Y-52706522D01*
X114549496Y-52714795D01*
X114548556Y-52719389D01*
X114249881Y-53418984D01*
X114243481Y-53425247D01*
X114234666Y-53425209D01*
X113833400Y-53259963D01*
X113827055Y-53253644D01*
X113661790Y-52852333D01*
X113661809Y-52843378D01*
X113668013Y-52837119D01*
X114367612Y-52538442D01*
X114376564Y-52538346D01*
X114380477Y-52540930D01*
G37*
G04 #@! TD.AperFunction*
G04 #@! TA.AperFunction,Conductor*
G36*
X114362633Y-53646355D02*
G01*
X114368621Y-53649556D01*
X114532121Y-53813056D01*
X114534657Y-53816852D01*
X114535806Y-53819626D01*
X114535806Y-53828580D01*
X114535705Y-53828818D01*
X113855701Y-55373150D01*
X113853080Y-55376890D01*
X113851794Y-55378120D01*
X113843448Y-55381362D01*
X113841730Y-55381324D01*
X113837161Y-55380284D01*
X113007015Y-55004204D01*
X113003305Y-55001547D01*
X113000894Y-54998974D01*
X112997916Y-54993042D01*
X112826400Y-54038075D01*
X112826484Y-54033515D01*
X112826913Y-54031553D01*
X112831705Y-54024416D01*
X112832938Y-54023568D01*
X112836752Y-54021851D01*
X113543477Y-53846656D01*
X113547163Y-53846346D01*
X113550719Y-53846612D01*
X113554316Y-53847469D01*
X113639856Y-53882901D01*
X113765531Y-53907900D01*
X113765532Y-53907900D01*
X113893668Y-53907900D01*
X113893669Y-53907900D01*
X114019344Y-53882901D01*
X114137727Y-53833865D01*
X114244269Y-53762676D01*
X114334876Y-53672069D01*
X114348200Y-53652125D01*
X114351419Y-53648905D01*
X114352905Y-53647912D01*
X114361682Y-53646166D01*
X114362633Y-53646355D01*
G37*
G04 #@! TD.AperFunction*
G04 #@! TA.AperFunction,Conductor*
G36*
X123267705Y-62070063D02*
G01*
X124456088Y-62540691D01*
X124460053Y-62543296D01*
X124626713Y-62709956D01*
X124630140Y-62718229D01*
X124626713Y-62726502D01*
X124626583Y-62726630D01*
X123596667Y-63724907D01*
X123588342Y-63728205D01*
X123580123Y-63724649D01*
X123579398Y-63723827D01*
X123003027Y-63005362D01*
X123000523Y-62996765D01*
X123000866Y-62994963D01*
X123252113Y-62077848D01*
X123257604Y-62070776D01*
X123266488Y-62069657D01*
X123267705Y-62070063D01*
G37*
G04 #@! TD.AperFunction*
G04 #@! TA.AperFunction,Conductor*
G36*
X120759709Y-62068288D02*
G01*
X121551700Y-62476700D01*
X121782321Y-62476700D01*
X121790594Y-62480127D01*
X121794021Y-62488400D01*
X121792675Y-62493849D01*
X121255817Y-63513936D01*
X121248931Y-63519661D01*
X121240014Y-63518841D01*
X121238754Y-63518072D01*
X120506677Y-63005673D01*
X120501864Y-62998122D01*
X120502069Y-62993119D01*
X120743034Y-62075714D01*
X120748450Y-62068585D01*
X120757322Y-62067372D01*
X120759709Y-62068288D01*
G37*
G04 #@! TD.AperFunction*
G04 #@! TA.AperFunction,Conductor*
G36*
X118125926Y-61182520D02*
G01*
X118128192Y-61185711D01*
X118745319Y-62465367D01*
X118745826Y-62474307D01*
X118741506Y-62480022D01*
X118006726Y-62996274D01*
X117997987Y-62998226D01*
X117993274Y-62996274D01*
X117258493Y-62480022D01*
X117253694Y-62472462D01*
X117254679Y-62465370D01*
X117871808Y-61185710D01*
X117878489Y-61179747D01*
X117882347Y-61179093D01*
X118117653Y-61179093D01*
X118125926Y-61182520D01*
G37*
G04 #@! TD.AperFunction*
G04 #@! TA.AperFunction,Conductor*
G36*
X112070951Y-56229837D02*
G01*
X112779576Y-56806261D01*
X112783832Y-56814140D01*
X112781489Y-56822441D01*
X112485656Y-57209564D01*
X112483464Y-57211756D01*
X112096341Y-57507589D01*
X112087687Y-57509890D01*
X112080161Y-57505676D01*
X111503737Y-56797051D01*
X111501174Y-56788471D01*
X111504539Y-56781396D01*
X112055296Y-56230639D01*
X112063568Y-56227213D01*
X112070951Y-56229837D01*
G37*
G04 #@! TD.AperFunction*
G04 #@! TA.AperFunction,Conductor*
G36*
X119706499Y-54604205D02*
G01*
X119710718Y-54605390D01*
X120255023Y-54876791D01*
X120494074Y-54995986D01*
X120497683Y-54998781D01*
X120500377Y-55001881D01*
X120502763Y-55006229D01*
X120772192Y-55914726D01*
X120772611Y-55919272D01*
X120772366Y-55921610D01*
X120768838Y-55928826D01*
X120768115Y-55929521D01*
X120765176Y-55931582D01*
X119531473Y-56539085D01*
X119527067Y-56540264D01*
X119524648Y-56540422D01*
X119524204Y-56540450D01*
X119517251Y-56538704D01*
X119517073Y-56538593D01*
X119514991Y-56536938D01*
X118963984Y-55985931D01*
X118961448Y-55982136D01*
X118960393Y-55979590D01*
X118959861Y-55972245D01*
X118959958Y-55971858D01*
X118960994Y-55969195D01*
X119692102Y-54611365D01*
X119695008Y-54607848D01*
X119696471Y-54606655D01*
X119704863Y-54604065D01*
X119706499Y-54604205D01*
G37*
G04 #@! TD.AperFunction*
G04 #@! TA.AperFunction,Conductor*
G36*
X118853268Y-56097881D02*
G01*
X118854803Y-56099173D01*
X119405315Y-56649685D01*
X119408742Y-56657958D01*
X119407986Y-56662095D01*
X119132800Y-57390170D01*
X119126670Y-57396697D01*
X119117719Y-57396977D01*
X119117399Y-57396851D01*
X118667338Y-57211402D01*
X118664654Y-57209852D01*
X118278802Y-56912560D01*
X118274340Y-56904796D01*
X118276377Y-56896555D01*
X118836966Y-56100706D01*
X118844531Y-56095918D01*
X118853268Y-56097881D01*
G37*
G04 #@! TD.AperFunction*
G04 #@! TA.AperFunction,Conductor*
G36*
X117898401Y-52977545D02*
G01*
X117902103Y-52980042D01*
X118453544Y-53531483D01*
X118456392Y-53536121D01*
X118810153Y-54618329D01*
X118809466Y-54627257D01*
X118803899Y-54632603D01*
X118005396Y-54997914D01*
X117996448Y-54998240D01*
X117993801Y-54996847D01*
X117258102Y-54479749D01*
X117253305Y-54472190D01*
X117254060Y-54465611D01*
X117883060Y-52983743D01*
X117889447Y-52977467D01*
X117898401Y-52977545D01*
G37*
G04 #@! TD.AperFunction*
G04 #@! TA.AperFunction,Conductor*
G36*
X113400562Y-61178427D02*
G01*
X113403041Y-61182086D01*
X113827825Y-62172001D01*
X113827938Y-62180955D01*
X113825299Y-62184935D01*
X113008226Y-62992866D01*
X112999934Y-62996246D01*
X112991774Y-62992866D01*
X112174700Y-62184935D01*
X112171226Y-62176681D01*
X112172173Y-62172003D01*
X112596959Y-61182085D01*
X112603371Y-61175835D01*
X112607711Y-61175000D01*
X113392289Y-61175000D01*
X113400562Y-61178427D01*
G37*
G04 #@! TD.AperFunction*
G04 #@! TA.AperFunction,Conductor*
G36*
X117206499Y-54604205D02*
G01*
X117210718Y-54605390D01*
X117755023Y-54876791D01*
X117994074Y-54995986D01*
X117997683Y-54998781D01*
X118000377Y-55001881D01*
X118002763Y-55006229D01*
X118272192Y-55914726D01*
X118272611Y-55919272D01*
X118272366Y-55921610D01*
X118268838Y-55928826D01*
X118268115Y-55929521D01*
X118265176Y-55931582D01*
X117031473Y-56539085D01*
X117027067Y-56540264D01*
X117024648Y-56540422D01*
X117024204Y-56540450D01*
X117017251Y-56538704D01*
X117017073Y-56538593D01*
X117014991Y-56536938D01*
X116463984Y-55985931D01*
X116461448Y-55982136D01*
X116460393Y-55979590D01*
X116459861Y-55972245D01*
X116459958Y-55971858D01*
X116460994Y-55969195D01*
X117192102Y-54611365D01*
X117195008Y-54607848D01*
X117196471Y-54606655D01*
X117204863Y-54604065D01*
X117206499Y-54604205D01*
G37*
G04 #@! TD.AperFunction*
G04 #@! TA.AperFunction,Conductor*
G36*
X141971114Y-55699732D02*
G01*
X141971256Y-55699839D01*
X142356994Y-55995082D01*
X142360701Y-55999916D01*
X142545847Y-56449246D01*
X142545830Y-56458200D01*
X142540642Y-56463969D01*
X141620210Y-56967233D01*
X141611307Y-56968195D01*
X141604331Y-56962580D01*
X141602897Y-56956967D01*
X141602897Y-56180564D01*
X141605199Y-56173595D01*
X141954748Y-55702159D01*
X141962427Y-55697557D01*
X141971114Y-55699732D01*
G37*
G04 #@! TD.AperFunction*
G04 #@! TA.AperFunction,Conductor*
G36*
X145283174Y-55424784D02*
G01*
X145503457Y-55586889D01*
X145504795Y-55588039D01*
X145672244Y-55755488D01*
X145675671Y-55763761D01*
X145672244Y-55772034D01*
X145671816Y-55772441D01*
X145283330Y-56123525D01*
X145274894Y-56126530D01*
X145266805Y-56122690D01*
X145266218Y-56121988D01*
X145004786Y-55782833D01*
X145002451Y-55774190D01*
X145004772Y-55768569D01*
X145266963Y-55427081D01*
X145274717Y-55422608D01*
X145283174Y-55424784D01*
G37*
G04 #@! TD.AperFunction*
G04 #@! TA.AperFunction,Conductor*
G36*
X139171501Y-53653178D02*
G01*
X139178479Y-53656532D01*
X139342532Y-53820585D01*
X139345069Y-53824381D01*
X139346275Y-53827293D01*
X139346518Y-53835606D01*
X138818374Y-55357403D01*
X138816066Y-55361340D01*
X138814882Y-55362672D01*
X138806824Y-55366579D01*
X138806821Y-55366579D01*
X138805507Y-55366656D01*
X138799971Y-55365622D01*
X138786764Y-55359603D01*
X138006467Y-55003976D01*
X138002763Y-55001310D01*
X138000170Y-54998530D01*
X137997409Y-54993518D01*
X137756736Y-54074879D01*
X137756464Y-54070329D01*
X137756718Y-54068474D01*
X137761118Y-54060838D01*
X137762438Y-54059809D01*
X137766370Y-54057803D01*
X139163712Y-53653206D01*
X139168250Y-53652816D01*
X139171501Y-53653178D01*
G37*
G04 #@! TD.AperFunction*
G04 #@! TA.AperFunction,Conductor*
G36*
X140945139Y-54155628D02*
G01*
X140949984Y-54157139D01*
X142192112Y-54870469D01*
X142195547Y-54873470D01*
X142197567Y-54876089D01*
X142200000Y-54883231D01*
X142200000Y-55115898D01*
X142199109Y-55120375D01*
X142197844Y-55123429D01*
X142192862Y-55129098D01*
X140950183Y-55842745D01*
X140945854Y-55844202D01*
X140944975Y-55844316D01*
X140944088Y-55844431D01*
X140935446Y-55842093D01*
X140934232Y-55841157D01*
X140930978Y-55837256D01*
X140502834Y-55007431D01*
X140501573Y-55003043D01*
X140501275Y-54999487D01*
X140502535Y-54993147D01*
X140930878Y-54162937D01*
X140933717Y-54159374D01*
X140935080Y-54158222D01*
X140943605Y-54155499D01*
X140945139Y-54155628D01*
G37*
G04 #@! TD.AperFunction*
G04 #@! TA.AperFunction,Conductor*
G36*
X136674845Y-53653550D02*
G01*
X136677472Y-53655525D01*
X136844178Y-53822231D01*
X136847605Y-53830504D01*
X136846958Y-53834340D01*
X136317611Y-55359603D01*
X136311661Y-55366295D01*
X136302722Y-55366820D01*
X136301706Y-55366413D01*
X136286764Y-55359603D01*
X135504349Y-55003011D01*
X135498243Y-54996463D01*
X135497887Y-54995340D01*
X135256148Y-54072632D01*
X135257366Y-54063761D01*
X135264211Y-54058429D01*
X136665946Y-53652560D01*
X136674845Y-53653550D01*
G37*
G04 #@! TD.AperFunction*
G04 #@! TA.AperFunction,Conductor*
G36*
X130899444Y-53182520D02*
G01*
X130902422Y-53187583D01*
X131310643Y-54618597D01*
X131309617Y-54627493D01*
X131304266Y-54632443D01*
X130504874Y-54998766D01*
X130495925Y-54999098D01*
X130495126Y-54998766D01*
X129962600Y-54754735D01*
X129695732Y-54632442D01*
X129689639Y-54625882D01*
X129689356Y-54618599D01*
X130097578Y-53187582D01*
X130103143Y-53180568D01*
X130108829Y-53179093D01*
X130891171Y-53179093D01*
X130899444Y-53182520D01*
G37*
G04 #@! TD.AperFunction*
G04 #@! TA.AperFunction,Conductor*
G36*
X133982747Y-53461294D02*
G01*
X133982925Y-53461405D01*
X133985007Y-53463060D01*
X134536014Y-54014067D01*
X134538550Y-54017862D01*
X134539604Y-54020406D01*
X134540135Y-54027764D01*
X134540039Y-54028142D01*
X134539001Y-54030809D01*
X133807898Y-55388627D01*
X133804991Y-55392147D01*
X133803527Y-55393341D01*
X133795128Y-55395930D01*
X133794244Y-55395854D01*
X133793492Y-55395790D01*
X133789276Y-55394604D01*
X133005925Y-55004013D01*
X133002315Y-55001217D01*
X132999621Y-54998117D01*
X132997235Y-54993769D01*
X132727805Y-54085271D01*
X132727386Y-54080728D01*
X132727631Y-54078385D01*
X132731158Y-54071172D01*
X132731882Y-54070476D01*
X132734817Y-54068418D01*
X133968528Y-53460911D01*
X133972934Y-53459733D01*
X133975798Y-53459547D01*
X133982747Y-53461294D01*
G37*
G04 #@! TD.AperFunction*
G04 #@! TA.AperFunction,Conductor*
G36*
X128845057Y-54651842D02*
G01*
X128852769Y-54654754D01*
X128853663Y-54655540D01*
X128854829Y-54657913D01*
X128855187Y-54657708D01*
X129705099Y-56135253D01*
X129706560Y-56139580D01*
X129706903Y-56142221D01*
X129705422Y-56149596D01*
X129705153Y-56150060D01*
X129703304Y-56152465D01*
X129152832Y-56702937D01*
X129149035Y-56705474D01*
X129146487Y-56706529D01*
X129139173Y-56707070D01*
X129139023Y-56707032D01*
X129138798Y-56706976D01*
X129136110Y-56705937D01*
X128444016Y-56334839D01*
X127782857Y-55980329D01*
X127779335Y-55977430D01*
X127777647Y-55975367D01*
X127775010Y-55968355D01*
X127774992Y-55967824D01*
X127775287Y-55964790D01*
X127997405Y-55007428D01*
X127999283Y-55003271D01*
X128001364Y-55000360D01*
X128006412Y-54996352D01*
X128838360Y-54652725D01*
X128842834Y-54651840D01*
X128845057Y-54651842D01*
G37*
G04 #@! TD.AperFunction*
G04 #@! TA.AperFunction,Conductor*
G36*
X132206499Y-54604205D02*
G01*
X132210718Y-54605390D01*
X132755023Y-54876791D01*
X132994074Y-54995986D01*
X132997683Y-54998781D01*
X133000377Y-55001881D01*
X133002763Y-55006229D01*
X133272192Y-55914726D01*
X133272611Y-55919272D01*
X133272366Y-55921610D01*
X133268838Y-55928826D01*
X133268115Y-55929521D01*
X133265176Y-55931582D01*
X132031473Y-56539085D01*
X132027067Y-56540264D01*
X132024648Y-56540422D01*
X132024204Y-56540450D01*
X132017251Y-56538704D01*
X132017073Y-56538593D01*
X132014991Y-56536938D01*
X131463984Y-55985931D01*
X131461448Y-55982136D01*
X131460393Y-55979590D01*
X131459861Y-55972245D01*
X131459958Y-55971858D01*
X131460994Y-55969195D01*
X132192102Y-54611365D01*
X132195008Y-54607848D01*
X132196471Y-54606655D01*
X132204863Y-54604065D01*
X132206499Y-54604205D01*
G37*
G04 #@! TD.AperFunction*
G04 #@! TA.AperFunction,Conductor*
G36*
X133806795Y-54609322D02*
G01*
X134539689Y-55970466D01*
X134540594Y-55979375D01*
X134537660Y-55984286D01*
X133984055Y-56537891D01*
X133975782Y-56541318D01*
X133970613Y-56540114D01*
X132841852Y-55984286D01*
X132733192Y-55930779D01*
X132727285Y-55924051D01*
X132727145Y-55916957D01*
X132997847Y-55004168D01*
X133003485Y-54997211D01*
X133003830Y-54997030D01*
X133791274Y-54604397D01*
X133800205Y-54603774D01*
X133806795Y-54609322D01*
G37*
G04 #@! TD.AperFunction*
M02*
